<svg id="visual" viewBox="0 0 900 600" width="900" height="600" xmlns="http://www.w3.org/2000/svg" xmlns:xlink="http://www.w3.org/1999/xlink" version="1.1"><rect x="0" y="0" width="900" height="600" fill="#feffff"></rect><g transform="translate(457.48744438221127 285.36246664608734)"><path d="M250.2 -332.6C328.1 -287.9 397.5 -219.8 415.8 -140.5C434 -61.3 401 29.2 373 122.9C344.9 216.7 321.7 313.9 260.4 366.4C199.1 419 99.5 427 30.5 385C-38.6 343.1 -77.2 251.2 -160.4 205.7C-243.6 160.3 -371.4 161.3 -416.4 113.8C-461.3 66.4 -423.2 -29.4 -361.3 -85.7C-299.3 -142 -213.4 -158.8 -149.2 -207.9C-85 -257 -42.5 -338.5 21.8 -368.6C86.2 -398.7 172.4 -377.3 250.2 -332.6" fill="#179833"></path></g></svg>