<svg id="visual" viewBox="0 0 900 600" width="900" height="600" xmlns="http://www.w3.org/2000/svg" xmlns:xlink="http://www.w3.org/1999/xlink" version="1.1"><rect x="0" y="0" width="900" height="600" fill="#feffff"></rect><g transform="translate(481.89618190513147 280.6215491593866)"><path d="M130.7 -185.9C165.4 -154.7 186.9 -111.2 183.9 -71.3C181 -31.4 153.8 4.8 148.4 56.6C143.1 108.3 159.7 175.5 138.6 216.8C117.6 258.1 58.8 273.6 11.5 257.8C-35.9 242 -71.7 195 -116.9 161.5C-162.1 128.1 -216.6 108.1 -237.6 70.7C-258.7 33.4 -246.3 -21.3 -212.2 -51.2C-178 -81 -122.1 -86 -83.1 -115.9C-44.1 -145.7 -22 -200.3 13 -218.2C48 -236.1 96 -217.1 130.7 -185.9" fill="#179833"></path></g></svg>