<svg id="visual" viewBox="0 0 900 600" width="900" height="600" xmlns="http://www.w3.org/2000/svg" xmlns:xlink="http://www.w3.org/1999/xlink" version="1.1"><rect width="900" height="600" fill="#ffffff"></rect><g><g transform="translate(605 178)"><path d="M106.3 -33.1C120.3 8.6 102.2 62.2 67.2 86.2C32.1 110.2 -19.9 104.7 -54.3 78.8C-88.6 52.9 -105.2 6.6 -93.2 -32.3C-81.2 -71.3 -40.6 -103 2.8 -103.9C46.1 -104.8 92.3 -74.9 106.3 -33.1Z" stroke="#08bc18" fill="none" stroke-width="20"></path></g><g transform="translate(182 302)"><path d="M50.5 -16.7C56.7 2.6 46.9 26.8 28.7 40.1C10.6 53.4 -15.8 55.8 -33.6 43.5C-51.3 31.3 -60.4 4.3 -53.3 -16.2C-46.3 -36.6 -23.1 -50.7 -0.5 -50.6C22.2 -50.4 44.3 -36 50.5 -16.7Z" stroke="#08bc18" fill="none" stroke-width="20"></path></g><g transform="translate(652 544)"><path d="M91.8 -26.9C104.1 8 88.9 54.7 55.9 79.2C22.9 103.7 -27.9 106.1 -59.8 82.8C-91.7 59.5 -104.7 10.6 -91.6 -25.4C-78.5 -61.4 -39.2 -84.5 0.3 -84.6C39.8 -84.7 79.5 -61.7 91.8 -26.9Z" stroke="#08bc18" fill="none" stroke-width="20"></path></g><g transform="translate(875 329)"><path d="M86.4 -24C97.9 7.6 83.7 51.7 54.5 72.3C25.3 92.8 -19 90 -46 69C-73.1 48 -82.9 9 -72.3 -21.2C-61.8 -51.3 -30.9 -72.5 3.2 -73.6C37.4 -74.6 74.8 -55.5 86.4 -24Z" stroke="#08bc18" fill="none" stroke-width="20"></path></g><g transform="translate(25 565)"><path d="M58.4 -17.5C66 4.2 55.6 33.3 34.7 48.7C13.8 64.1 -17.7 65.9 -35.6 52.1C-53.6 38.3 -58.1 9 -49.9 -13.7C-41.7 -36.3 -20.9 -52.3 2.3 -53.1C25.4 -53.8 50.9 -39.3 58.4 -17.5Z" stroke="#08bc18" fill="none" stroke-width="20"></path></g><g transform="translate(876 31)"><path d="M78.3 -25.6C89.1 7.8 77 48.6 48.5 70C20.1 91.5 -24.8 93.6 -53.8 72.8C-82.8 52 -96.1 8.2 -84.5 -26.2C-72.9 -60.7 -36.4 -85.8 -1.3 -85.4C33.8 -84.9 67.5 -58.9 78.3 -25.6Z" stroke="#08bc18" fill="none" stroke-width="20"></path></g><g transform="translate(45 16)"><path d="M53.9 -17.3C61.6 6.3 54 35.1 34.5 49.8C15.1 64.5 -16.3 65 -36.4 50.4C-56.5 35.7 -65.3 5.8 -57.4 -18.1C-49.5 -41.9 -24.7 -59.7 -0.8 -59.5C23.1 -59.2 46.1 -40.8 53.9 -17.3Z" stroke="#08bc18" fill="none" stroke-width="20"></path></g></g></svg>