<svg id="visual" viewBox="0 0 900 600" width="900" height="600" xmlns="http://www.w3.org/2000/svg" xmlns:xlink="http://www.w3.org/1999/xlink" version="1.1"><rect x="0" y="0" width="900" height="600" fill="#000"></rect><path d="M0 441L21.5 435.8C43 430.7 86 420.3 128.8 416.5C171.7 412.7 214.3 415.3 257.2 409.2C300 403 343 388 385.8 383.3C428.7 378.7 471.3 384.3 514.2 396.7C557 409 600 428 642.8 427.3C685.7 426.7 728.3 406.3 771.2 397.2C814 388 857 390 878.5 391L900 392L900 601L878.5 601C857 601 814 601 771.2 601C728.3 601 685.7 601 642.8 601C600 601 557 601 514.2 601C471.3 601 428.7 601 385.8 601C343 601 300 601 257.2 601C214.3 601 171.7 601 128.8 601C86 601 43 601 21.5 601L0 601Z" fill="#636463"></path><path d="M0 464L21.5 460.3C43 456.7 86 449.3 128.8 451.2C171.7 453 214.3 464 257.2 464.3C300 464.7 343 454.3 385.8 453.8C428.7 453.3 471.3 462.7 514.2 460.5C557 458.3 600 444.7 642.8 444C685.7 443.3 728.3 455.7 771.2 451.7C814 447.7 857 427.3 878.5 417.2L900 407L900 601L878.5 601C857 601 814 601 771.2 601C728.3 601 685.7 601 642.8 601C600 601 557 601 514.2 601C471.3 601 428.7 601 385.8 601C343 601 300 601 257.2 601C214.3 601 171.7 601 128.8 601C86 601 43 601 21.5 601L0 601Z" fill="#6e6f6e"></path><path d="M0 449L21.5 455.7C43 462.3 86 475.7 128.8 475.2C171.7 474.7 214.3 460.3 257.2 453.5C300 446.7 343 447.3 385.8 448.5C428.7 449.7 471.3 451.3 514.2 457.5C557 463.7 600 474.3 642.8 482.5C685.7 490.7 728.3 496.3 771.2 497.7C814 499 857 496 878.5 494.5L900 493L900 601L878.5 601C857 601 814 601 771.2 601C728.3 601 685.7 601 642.8 601C600 601 557 601 514.2 601C471.3 601 428.7 601 385.8 601C343 601 300 601 257.2 601C214.3 601 171.7 601 128.8 601C86 601 43 601 21.5 601L0 601Z" fill="#7a7b7a"></path><path d="M0 538L21.5 532.7C43 527.3 86 516.7 128.8 513.2C171.7 509.7 214.3 513.3 257.2 516.7C300 520 343 523 385.8 521C428.7 519 471.3 512 514.2 514.2C557 516.3 600 527.7 642.8 528.8C685.7 530 728.3 521 771.2 518.7C814 516.3 857 520.7 878.5 522.8L900 525L900 601L878.5 601C857 601 814 601 771.2 601C728.3 601 685.7 601 642.8 601C600 601 557 601 514.2 601C471.3 601 428.7 601 385.8 601C343 601 300 601 257.2 601C214.3 601 171.7 601 128.8 601C86 601 43 601 21.5 601L0 601Z" fill="#868686"></path><path d="M0 544L21.5 547.8C43 551.7 86 559.3 128.8 561.2C171.7 563 214.3 559 257.2 559.8C300 560.7 343 566.3 385.8 569.5C428.7 572.7 471.3 573.3 514.2 566C557 558.7 600 543.3 642.8 539C685.7 534.7 728.3 541.3 771.2 545.5C814 549.7 857 551.3 878.5 552.2L900 553L900 601L878.5 601C857 601 814 601 771.2 601C728.3 601 685.7 601 642.8 601C600 601 557 601 514.2 601C471.3 601 428.7 601 385.8 601C343 601 300 601 257.2 601C214.3 601 171.7 601 128.8 601C86 601 43 601 21.5 601L0 601Z" fill="#929292"></path></svg>