<svg id="visual" viewBox="0 0 900 600" width="900" height="600" xmlns="http://www.w3.org/2000/svg" xmlns:xlink="http://www.w3.org/1999/xlink" version="1.1"><rect x="0" y="0" width="900" height="600" fill="#fff"></rect><path d="M0 165L21.5 164.2C43 163.3 86 161.7 128.8 170C171.7 178.3 214.3 196.7 257.2 205.7C300 214.7 343 214.3 385.8 203.5C428.7 192.7 471.3 171.3 514.2 166.7C557 162 600 174 642.8 174.7C685.7 175.3 728.3 164.7 771.2 168.5C814 172.3 857 190.7 878.5 199.8L900 209L900 0L878.5 0C857 0 814 0 771.2 0C728.3 0 685.7 0 642.8 0C600 0 557 0 514.2 0C471.3 0 428.7 0 385.8 0C343 0 300 0 257.2 0C214.3 0 171.7 0 128.8 0C86 0 43 0 21.5 0L0 0Z" fill="#2d9f57"></path><path d="M0 170L21.5 159C43 148 86 126 128.8 123C171.7 120 214.3 136 257.2 144C300 152 343 152 385.8 141.3C428.7 130.7 471.3 109.3 514.2 109.8C557 110.3 600 132.7 642.8 144.2C685.7 155.7 728.3 156.3 771.2 149.2C814 142 857 127 878.5 119.5L900 112L900 0L878.5 0C857 0 814 0 771.2 0C728.3 0 685.7 0 642.8 0C600 0 557 0 514.2 0C471.3 0 428.7 0 385.8 0C343 0 300 0 257.2 0C214.3 0 171.7 0 128.8 0C86 0 43 0 21.5 0L0 0Z" fill="#228346"></path><path d="M0 37L21.5 47.7C43 58.3 86 79.7 128.8 80C171.7 80.3 214.3 59.7 257.2 61.2C300 62.7 343 86.3 385.8 86.7C428.7 87 471.3 64 514.2 62C557 60 600 79 642.8 78.5C685.7 78 728.3 58 771.2 60.2C814 62.3 857 86.7 878.5 98.8L900 111L900 0L878.5 0C857 0 814 0 771.2 0C728.3 0 685.7 0 642.8 0C600 0 557 0 514.2 0C471.3 0 428.7 0 385.8 0C343 0 300 0 257.2 0C214.3 0 171.7 0 128.8 0C86 0 43 0 21.5 0L0 0Z" fill="#176835"></path></svg>