<svg id="visual" viewBox="0 0 900 600" width="900" height="600" xmlns="http://www.w3.org/2000/svg" xmlns:xlink="http://www.w3.org/1999/xlink" version="1.1"><rect x="0" y="0" width="900" height="600" fill="#000000"></rect><path d="M0 402L129 385L257 431L386 453L514 362L643 413L771 437L900 401L900 601L771 601L643 601L514 601L386 601L257 601L129 601L0 601Z" fill="#808080"></path><path d="M0 413L129 460L257 434L386 415L514 471L643 427L771 483L900 427L900 601L771 601L643 601L514 601L386 601L257 601L129 601L0 601Z" fill="#686868"></path><path d="M0 485L129 515L257 495L386 496L514 460L643 477L771 506L900 503L900 601L771 601L643 601L514 601L386 601L257 601L129 601L0 601Z" fill="#505251"></path><path d="M0 561L129 559L257 519L386 555L514 567L643 512L771 541L900 554L900 601L771 601L643 601L514 601L386 601L257 601L129 601L0 601Z" fill="#3a3d3b"></path></svg>