<svg id="visual" viewBox="0 0 900 600" width="900" height="600" xmlns="http://www.w3.org/2000/svg" xmlns:xlink="http://www.w3.org/1999/xlink" version="1.1"><rect x="0" y="0" width="900" height="600" fill="#000"></rect><path d="M0 173L129 184L257 209L386 205L514 224L643 197L771 201L900 182L900 0L771 0L643 0L514 0L386 0L257 0L129 0L0 0Z" fill="#595959"></path><path d="M0 107L129 121L257 160L386 192L514 126L643 188L771 134L900 150L900 0L771 0L643 0L514 0L386 0L257 0L129 0L0 0Z" fill="#6c6c6c"></path><path d="M0 121L129 120L257 74L386 133L514 84L643 107L771 141L900 85L900 0L771 0L643 0L514 0L386 0L257 0L129 0L0 0Z" fill="#7f7f7f"></path><path d="M0 35L129 73L257 30L386 40L514 46L643 61L771 38L900 38L900 0L771 0L643 0L514 0L386 0L257 0L129 0L0 0Z" fill="#929292"></path></svg>