<svg id="visual" viewBox="0 0 900 600" width="900" height="600" xmlns="http://www.w3.org/2000/svg" xmlns:xlink="http://www.w3.org/1999/xlink" version="1.1"><path d="M0 43L13.7 47C27.3 51 54.7 59 82 60C109.3 61 136.7 55 163.8 60C191 65 218 81 245.2 85C272.3 89 299.7 81 327 73C354.3 65 381.7 57 409 54C436.3 51 463.7 53 491 51C518.3 49 545.7 43 573 48C600.3 53 627.7 69 654.8 72C682 75 709 65 736.2 65C763.3 65 790.7 75 818 76C845.3 77 872.7 69 886.3 65L900 61L900 0L886.3 0C872.7 0 845.3 0 818 0C790.7 0 763.3 0 736.2 0C709 0 682 0 654.8 0C627.7 0 600.3 0 573 0C545.7 0 518.3 0 491 0C463.7 0 436.3 0 409 0C381.7 0 354.3 0 327 0C299.7 0 272.3 0 245.2 0C218 0 191 0 163.8 0C136.7 0 109.3 0 82 0C54.7 0 27.3 0 13.7 0L0 0Z" fill="#929292"></path><path d="M0 163L13.7 158C27.3 153 54.7 143 82 140C109.3 137 136.7 141 163.8 143C191 145 218 145 245.2 153C272.3 161 299.7 177 327 170C354.3 163 381.7 133 409 124C436.3 115 463.7 127 491 128C518.3 129 545.7 119 573 126C600.3 133 627.7 157 654.8 163C682 169 709 157 736.2 159C763.3 161 790.7 177 818 173C845.3 169 872.7 145 886.3 133L900 121L900 59L886.3 63C872.7 67 845.3 75 818 74C790.7 73 763.3 63 736.2 63C709 63 682 73 654.8 70C627.7 67 600.3 51 573 46C545.7 41 518.3 47 491 49C463.7 51 436.3 49 409 52C381.7 55 354.3 63 327 71C299.7 79 272.3 87 245.2 83C218 79 191 63 163.8 58C136.7 53 109.3 59 82 58C54.7 57 27.3 49 13.7 45L0 41Z" fill="#828383"></path><path d="M0 307L13.7 308C27.3 309 54.7 311 82 322C109.3 333 136.7 353 163.8 351C191 349 218 325 245.2 306C272.3 287 299.7 273 327 257C354.3 241 381.7 223 409 219C436.3 215 463.7 225 491 228C518.3 231 545.7 227 573 246C600.3 265 627.7 307 654.8 328C682 349 709 349 736.2 350C763.3 351 790.7 353 818 335C845.3 317 872.7 279 886.3 260L900 241L900 119L886.3 131C872.7 143 845.3 167 818 171C790.7 175 763.3 159 736.2 157C709 155 682 167 654.8 161C627.7 155 600.3 131 573 124C545.7 117 518.3 127 491 126C463.7 125 436.3 113 409 122C381.7 131 354.3 161 327 168C299.7 175 272.3 159 245.2 151C218 143 191 143 163.8 141C136.7 139 109.3 135 82 138C54.7 141 27.3 151 13.7 156L0 161Z" fill="#737474"></path><path d="M0 487L13.7 477C27.3 467 54.7 447 82 441C109.3 435 136.7 443 163.8 449C191 455 218 459 245.2 453C272.3 447 299.7 431 327 426C354.3 421 381.7 427 409 430C436.3 433 463.7 433 491 433C518.3 433 545.7 433 573 444C600.3 455 627.7 477 654.8 475C682 473 709 447 736.2 435C763.3 423 790.7 425 818 427C845.3 429 872.7 431 886.3 432L900 433L900 239L886.3 258C872.7 277 845.3 315 818 333C790.7 351 763.3 349 736.2 348C709 347 682 347 654.8 326C627.7 305 600.3 263 573 244C545.7 225 518.3 229 491 226C463.7 223 436.3 213 409 217C381.7 221 354.3 239 327 255C299.7 271 272.3 285 245.2 304C218 323 191 347 163.8 349C136.7 351 109.3 331 82 320C54.7 309 27.3 307 13.7 306L0 305Z" fill="#646665"></path><path d="M0 523L13.7 517C27.3 511 54.7 499 82 491C109.3 483 136.7 479 163.8 480C191 481 218 487 245.2 489C272.3 491 299.7 489 327 493C354.3 497 381.7 507 409 510C436.3 513 463.7 509 491 501C518.3 493 545.7 481 573 485C600.3 489 627.7 509 654.8 514C682 519 709 509 736.2 505C763.3 501 790.7 503 818 503C845.3 503 872.7 501 886.3 500L900 499L900 431L886.3 430C872.7 429 845.3 427 818 425C790.7 423 763.3 421 736.2 433C709 445 682 471 654.8 473C627.7 475 600.3 453 573 442C545.7 431 518.3 431 491 431C463.7 431 436.3 431 409 428C381.7 425 354.3 419 327 424C299.7 429 272.3 445 245.2 451C218 457 191 453 163.8 447C136.7 441 109.3 433 82 439C54.7 445 27.3 465 13.7 475L0 485Z" fill="#565857"></path><path d="M0 559L13.7 554C27.3 549 54.7 539 82 536C109.3 533 136.7 537 163.8 540C191 543 218 545 245.2 546C272.3 547 299.7 547 327 551C354.3 555 381.7 563 409 564C436.3 565 463.7 559 491 552C518.3 545 545.7 537 573 541C600.3 545 627.7 561 654.8 566C682 571 709 565 736.2 558C763.3 551 790.7 543 818 540C845.3 537 872.7 539 886.3 540L900 541L900 497L886.3 498C872.7 499 845.3 501 818 501C790.7 501 763.3 499 736.2 503C709 507 682 517 654.8 512C627.7 507 600.3 487 573 483C545.7 479 518.3 491 491 499C463.7 507 436.3 511 409 508C381.7 505 354.3 495 327 491C299.7 487 272.3 489 245.2 487C218 485 191 479 163.8 478C136.7 477 109.3 481 82 489C54.7 497 27.3 509 13.7 515L0 521Z" fill="#484a49"></path><path d="M0 601L13.7 601C27.3 601 54.7 601 82 601C109.3 601 136.7 601 163.8 601C191 601 218 601 245.2 601C272.3 601 299.7 601 327 601C354.3 601 381.7 601 409 601C436.3 601 463.7 601 491 601C518.3 601 545.7 601 573 601C600.3 601 627.7 601 654.8 601C682 601 709 601 736.2 601C763.3 601 790.7 601 818 601C845.3 601 872.7 601 886.3 601L900 601L900 539L886.3 538C872.7 537 845.3 535 818 538C790.7 541 763.3 549 736.2 556C709 563 682 569 654.8 564C627.7 559 600.3 543 573 539C545.7 535 518.3 543 491 550C463.7 557 436.3 563 409 562C381.7 561 354.3 553 327 549C299.7 545 272.3 545 245.2 544C218 543 191 541 163.8 538C136.7 535 109.3 531 82 534C54.7 537 27.3 547 13.7 552L0 557Z" fill="#3a3d3b"></path></svg>