<svg id="visual" viewBox="0 0 900 600" width="900" height="600" xmlns="http://www.w3.org/2000/svg" xmlns:xlink="http://www.w3.org/1999/xlink" version="1.1"><rect x="0" y="0" width="900" height="600" fill="#000"></rect><path d="M0 169L21.5 155.2C43 141.3 86 113.7 128.8 122C171.7 130.3 214.3 174.7 257.2 194.3C300 214 343 209 385.8 190.5C428.7 172 471.3 140 514.2 140.2C557 140.3 600 172.7 642.8 175C685.7 177.3 728.3 149.7 771.2 140C814 130.3 857 138.7 878.5 142.8L900 147L900 0L878.5 0C857 0 814 0 771.2 0C728.3 0 685.7 0 642.8 0C600 0 557 0 514.2 0C471.3 0 428.7 0 385.8 0C343 0 300 0 257.2 0C214.3 0 171.7 0 128.8 0C86 0 43 0 21.5 0L0 0Z" fill="#929292" stroke-linecap="round" stroke-linejoin="miter"></path></svg>